<mxfile host="app.diagrams.net" modified="2020-07-14T09:36:58.254Z" agent="5.0 (Windows)" etag="PlLwmT-Dbw8cRjgHDFo9" version="13.4.2" type="github">
  <diagram id="V2FDnTqdljDvjPYiPSpt" name="Page-1">
    <mxGraphModel dx="1038" dy="547" grid="1" gridSize="10" guides="1" tooltips="1" connect="1" arrows="1" fold="1" page="1" pageScale="1" pageWidth="827" pageHeight="1169" math="0" shadow="0">
      <root>
        <mxCell id="0" />
        <mxCell id="1" parent="0" />
        <mxCell id="p0xpRFuan8DHnEi8f1Jj-1" value="消费者" style="rounded=1;whiteSpace=wrap;html=1;fillColor=#dae8fc;strokeColor=#6c8ebf;fontSize=17;" vertex="1" parent="1">
          <mxGeometry x="90" y="90" width="90" height="30" as="geometry" />
        </mxCell>
        <mxCell id="p0xpRFuan8DHnEi8f1Jj-2" value="Line APP" style="rounded=1;whiteSpace=wrap;html=1;fillColor=#dae8fc;strokeColor=#6c8ebf;fontSize=17;" vertex="1" parent="1">
          <mxGeometry x="260" y="90" width="90" height="30" as="geometry" />
        </mxCell>
        <mxCell id="p0xpRFuan8DHnEi8f1Jj-3" value="商家" style="rounded=1;whiteSpace=wrap;html=1;fillColor=#dae8fc;strokeColor=#6c8ebf;fontSize=17;" vertex="1" parent="1">
          <mxGeometry x="420" y="90" width="90" height="30" as="geometry" />
        </mxCell>
        <mxCell id="p0xpRFuan8DHnEi8f1Jj-4" value="收单网关" style="rounded=1;whiteSpace=wrap;html=1;fillColor=#dae8fc;strokeColor=#6c8ebf;fontSize=17;" vertex="1" parent="1">
          <mxGeometry x="580" y="90" width="90" height="30" as="geometry" />
        </mxCell>
        <mxCell id="p0xpRFuan8DHnEi8f1Jj-5" value="Line Sever" style="rounded=1;whiteSpace=wrap;html=1;fillColor=#dae8fc;strokeColor=#6c8ebf;fontSize=17;" vertex="1" parent="1">
          <mxGeometry x="737" y="90" width="90" height="30" as="geometry" />
        </mxCell>
        <mxCell id="p0xpRFuan8DHnEi8f1Jj-6" value="" style="endArrow=none;dashed=1;html=1;fontSize=17;entryX=0.5;entryY=1;entryDx=0;entryDy=0;" edge="1" parent="1" source="p0xpRFuan8DHnEi8f1Jj-35" target="p0xpRFuan8DHnEi8f1Jj-1">
          <mxGeometry width="50" height="50" relative="1" as="geometry">
            <mxPoint x="135" y="850" as="sourcePoint" />
            <mxPoint x="140" y="270" as="targetPoint" />
          </mxGeometry>
        </mxCell>
        <mxCell id="p0xpRFuan8DHnEi8f1Jj-7" value="" style="endArrow=none;dashed=1;html=1;fontSize=17;entryX=0.5;entryY=1;entryDx=0;entryDy=0;" edge="1" parent="1" source="p0xpRFuan8DHnEi8f1Jj-37">
          <mxGeometry width="50" height="50" relative="1" as="geometry">
            <mxPoint x="304" y="850" as="sourcePoint" />
            <mxPoint x="304.5" y="120" as="targetPoint" />
          </mxGeometry>
        </mxCell>
        <mxCell id="p0xpRFuan8DHnEi8f1Jj-8" value="" style="endArrow=none;dashed=1;html=1;fontSize=17;entryX=0.5;entryY=1;entryDx=0;entryDy=0;" edge="1" parent="1" source="p0xpRFuan8DHnEi8f1Jj-11">
          <mxGeometry width="50" height="50" relative="1" as="geometry">
            <mxPoint x="470" y="648" as="sourcePoint" />
            <mxPoint x="470" y="120" as="targetPoint" />
          </mxGeometry>
        </mxCell>
        <mxCell id="p0xpRFuan8DHnEi8f1Jj-9" value="" style="endArrow=none;dashed=1;html=1;fontSize=17;entryX=0.5;entryY=1;entryDx=0;entryDy=0;" edge="1" parent="1" source="p0xpRFuan8DHnEi8f1Jj-13">
          <mxGeometry width="50" height="50" relative="1" as="geometry">
            <mxPoint x="630" y="648" as="sourcePoint" />
            <mxPoint x="630" y="120" as="targetPoint" />
          </mxGeometry>
        </mxCell>
        <mxCell id="p0xpRFuan8DHnEi8f1Jj-10" value="" style="endArrow=none;dashed=1;html=1;fontSize=17;entryX=0.5;entryY=1;entryDx=0;entryDy=0;" edge="1" parent="1" source="p0xpRFuan8DHnEi8f1Jj-52">
          <mxGeometry width="50" height="50" relative="1" as="geometry">
            <mxPoint x="781" y="850" as="sourcePoint" />
            <mxPoint x="781.5" y="120" as="targetPoint" />
          </mxGeometry>
        </mxCell>
        <mxCell id="p0xpRFuan8DHnEi8f1Jj-11" value="" style="rounded=0;whiteSpace=wrap;html=1;fontSize=17;fillColor=#d5e8d4;strokeColor=#82b366;" vertex="1" parent="1">
          <mxGeometry x="460" y="140" width="20" height="50" as="geometry" />
        </mxCell>
        <mxCell id="p0xpRFuan8DHnEi8f1Jj-12" value="" style="endArrow=none;dashed=1;html=1;fontSize=17;entryX=0.5;entryY=1;entryDx=0;entryDy=0;" edge="1" parent="1" source="p0xpRFuan8DHnEi8f1Jj-28" target="p0xpRFuan8DHnEi8f1Jj-11">
          <mxGeometry width="50" height="50" relative="1" as="geometry">
            <mxPoint x="470" y="648" as="sourcePoint" />
            <mxPoint x="470" y="120" as="targetPoint" />
          </mxGeometry>
        </mxCell>
        <mxCell id="p0xpRFuan8DHnEi8f1Jj-13" value="" style="rounded=0;whiteSpace=wrap;html=1;fontSize=17;fillColor=#d5e8d4;strokeColor=#82b366;" vertex="1" parent="1">
          <mxGeometry x="620" y="190" width="20" height="100" as="geometry" />
        </mxCell>
        <mxCell id="p0xpRFuan8DHnEi8f1Jj-14" value="" style="endArrow=none;dashed=1;html=1;fontSize=17;entryX=0.5;entryY=1;entryDx=0;entryDy=0;" edge="1" parent="1" source="p0xpRFuan8DHnEi8f1Jj-48" target="p0xpRFuan8DHnEi8f1Jj-13">
          <mxGeometry width="50" height="50" relative="1" as="geometry">
            <mxPoint x="630" y="850" as="sourcePoint" />
            <mxPoint x="630" y="120" as="targetPoint" />
          </mxGeometry>
        </mxCell>
        <mxCell id="p0xpRFuan8DHnEi8f1Jj-15" value="" style="endArrow=classic;html=1;fontSize=17;exitX=1;exitY=1;exitDx=0;exitDy=0;entryX=0;entryY=0;entryDx=0;entryDy=0;" edge="1" parent="1" source="p0xpRFuan8DHnEi8f1Jj-11" target="p0xpRFuan8DHnEi8f1Jj-13">
          <mxGeometry width="50" height="50" relative="1" as="geometry">
            <mxPoint x="540" y="230" as="sourcePoint" />
            <mxPoint x="590" y="180" as="targetPoint" />
          </mxGeometry>
        </mxCell>
        <mxCell id="p0xpRFuan8DHnEi8f1Jj-16" value="&lt;div style=&quot;font-size: 12px&quot;&gt;&lt;font style=&quot;font-size: 12px&quot;&gt;调用收单网关接口&lt;/font&gt;&lt;/div&gt;&lt;font style=&quot;font-size: 12px&quot;&gt;传递订单信息&lt;br&gt;&lt;/font&gt;" style="text;html=1;strokeColor=none;fillColor=none;align=center;verticalAlign=middle;whiteSpace=wrap;rounded=0;fontSize=17;" vertex="1" parent="1">
          <mxGeometry x="500" y="155" width="100" height="20" as="geometry" />
        </mxCell>
        <mxCell id="p0xpRFuan8DHnEi8f1Jj-17" value="" style="edgeStyle=elbowEdgeStyle;elbow=vertical;endArrow=classic;html=1;fontSize=17;exitX=1;exitY=0;exitDx=0;exitDy=0;entryX=1;entryY=0.5;entryDx=0;entryDy=0;" edge="1" parent="1" source="p0xpRFuan8DHnEi8f1Jj-13" target="p0xpRFuan8DHnEi8f1Jj-13">
          <mxGeometry width="50" height="50" relative="1" as="geometry">
            <mxPoint x="690" y="230" as="sourcePoint" />
            <mxPoint x="740" y="180" as="targetPoint" />
            <Array as="points">
              <mxPoint x="680" y="210" />
            </Array>
          </mxGeometry>
        </mxCell>
        <mxCell id="p0xpRFuan8DHnEi8f1Jj-19" value="" style="edgeStyle=elbowEdgeStyle;elbow=vertical;endArrow=classic;html=1;fontSize=17;exitX=1;exitY=0.5;exitDx=0;exitDy=0;entryX=1;entryY=1;entryDx=0;entryDy=0;" edge="1" parent="1" source="p0xpRFuan8DHnEi8f1Jj-13" target="p0xpRFuan8DHnEi8f1Jj-13">
          <mxGeometry width="50" height="50" relative="1" as="geometry">
            <mxPoint x="580" y="350" as="sourcePoint" />
            <mxPoint x="630" y="300" as="targetPoint" />
            <Array as="points">
              <mxPoint x="680" y="260" />
            </Array>
          </mxGeometry>
        </mxCell>
        <mxCell id="p0xpRFuan8DHnEi8f1Jj-20" value="&lt;font style=&quot;font-size: 12px&quot;&gt;授权认证&lt;/font&gt;" style="text;html=1;strokeColor=none;fillColor=none;align=center;verticalAlign=middle;whiteSpace=wrap;rounded=0;fontSize=17;" vertex="1" parent="1">
          <mxGeometry x="684" y="200" width="53" height="20" as="geometry" />
        </mxCell>
        <mxCell id="p0xpRFuan8DHnEi8f1Jj-21" value="生成订单" style="text;html=1;strokeColor=none;fillColor=none;align=center;verticalAlign=middle;whiteSpace=wrap;rounded=0;fontSize=12;" vertex="1" parent="1">
          <mxGeometry x="684" y="250" width="53" height="20" as="geometry" />
        </mxCell>
        <mxCell id="p0xpRFuan8DHnEi8f1Jj-22" value="" style="rounded=0;whiteSpace=wrap;html=1;fontSize=17;fillColor=#d5e8d4;strokeColor=#82b366;" vertex="1" parent="1">
          <mxGeometry x="772" y="290" width="20" height="60" as="geometry" />
        </mxCell>
        <mxCell id="p0xpRFuan8DHnEi8f1Jj-23" value="" style="endArrow=classic;html=1;fontSize=17;exitX=1;exitY=1;exitDx=0;exitDy=0;entryX=0;entryY=0;entryDx=0;entryDy=0;" edge="1" parent="1" source="p0xpRFuan8DHnEi8f1Jj-13" target="p0xpRFuan8DHnEi8f1Jj-22">
          <mxGeometry width="50" height="50" relative="1" as="geometry">
            <mxPoint x="700" y="370" as="sourcePoint" />
            <mxPoint x="750" y="320" as="targetPoint" />
          </mxGeometry>
        </mxCell>
        <mxCell id="p0xpRFuan8DHnEi8f1Jj-24" value="呼叫Request API" style="text;html=1;strokeColor=none;fillColor=none;align=center;verticalAlign=middle;whiteSpace=wrap;rounded=0;fontSize=12;" vertex="1" parent="1">
          <mxGeometry x="650" y="290" width="106" height="20" as="geometry" />
        </mxCell>
        <mxCell id="p0xpRFuan8DHnEi8f1Jj-25" value="" style="rounded=0;whiteSpace=wrap;html=1;fontSize=17;fillColor=#d5e8d4;strokeColor=#82b366;" vertex="1" parent="1">
          <mxGeometry x="620" y="350" width="20" height="40" as="geometry" />
        </mxCell>
        <mxCell id="p0xpRFuan8DHnEi8f1Jj-26" value="" style="endArrow=classic;html=1;fontSize=12;exitX=0.25;exitY=1;exitDx=0;exitDy=0;entryX=1;entryY=0;entryDx=0;entryDy=0;" edge="1" parent="1" source="p0xpRFuan8DHnEi8f1Jj-22" target="p0xpRFuan8DHnEi8f1Jj-25">
          <mxGeometry width="50" height="50" relative="1" as="geometry">
            <mxPoint x="470" y="370" as="sourcePoint" />
            <mxPoint x="520" y="320" as="targetPoint" />
          </mxGeometry>
        </mxCell>
        <mxCell id="p0xpRFuan8DHnEi8f1Jj-27" value="返回paymentUrl" style="text;html=1;strokeColor=none;fillColor=none;align=center;verticalAlign=middle;whiteSpace=wrap;rounded=0;fontSize=12;" vertex="1" parent="1">
          <mxGeometry x="657.5" y="350" width="106" height="20" as="geometry" />
        </mxCell>
        <mxCell id="p0xpRFuan8DHnEi8f1Jj-28" value="" style="rounded=0;whiteSpace=wrap;html=1;fontSize=17;fillColor=#d5e8d4;strokeColor=#82b366;" vertex="1" parent="1">
          <mxGeometry x="460" y="390" width="20" height="70" as="geometry" />
        </mxCell>
        <mxCell id="p0xpRFuan8DHnEi8f1Jj-29" value="" style="endArrow=none;dashed=1;html=1;fontSize=17;entryX=0.5;entryY=1;entryDx=0;entryDy=0;" edge="1" parent="1" source="p0xpRFuan8DHnEi8f1Jj-65" target="p0xpRFuan8DHnEi8f1Jj-28">
          <mxGeometry width="50" height="50" relative="1" as="geometry">
            <mxPoint x="470" y="850" as="sourcePoint" />
            <mxPoint x="470" y="190" as="targetPoint" />
          </mxGeometry>
        </mxCell>
        <mxCell id="p0xpRFuan8DHnEi8f1Jj-30" value="" style="endArrow=classic;html=1;fontSize=12;exitX=0;exitY=1;exitDx=0;exitDy=0;entryX=1;entryY=0;entryDx=0;entryDy=0;" edge="1" parent="1" source="p0xpRFuan8DHnEi8f1Jj-25" target="p0xpRFuan8DHnEi8f1Jj-28">
          <mxGeometry width="50" height="50" relative="1" as="geometry">
            <mxPoint x="410" y="430" as="sourcePoint" />
            <mxPoint x="460" y="380" as="targetPoint" />
          </mxGeometry>
        </mxCell>
        <mxCell id="p0xpRFuan8DHnEi8f1Jj-31" value="返回paymentUrl" style="text;html=1;strokeColor=none;fillColor=none;align=center;verticalAlign=middle;whiteSpace=wrap;rounded=0;fontSize=12;" vertex="1" parent="1">
          <mxGeometry x="494" y="390" width="106" height="20" as="geometry" />
        </mxCell>
        <mxCell id="p0xpRFuan8DHnEi8f1Jj-32" value="" style="edgeStyle=elbowEdgeStyle;elbow=vertical;endArrow=classic;html=1;fontSize=12;exitX=1;exitY=0.5;exitDx=0;exitDy=0;entryX=1;entryY=1;entryDx=0;entryDy=0;" edge="1" parent="1" source="p0xpRFuan8DHnEi8f1Jj-28" target="p0xpRFuan8DHnEi8f1Jj-28">
          <mxGeometry width="50" height="50" relative="1" as="geometry">
            <mxPoint x="540" y="500" as="sourcePoint" />
            <mxPoint x="590" y="450" as="targetPoint" />
            <Array as="points">
              <mxPoint x="510" y="440" />
            </Array>
          </mxGeometry>
        </mxCell>
        <mxCell id="p0xpRFuan8DHnEi8f1Jj-33" value="返回paymentUrl" style="text;html=1;strokeColor=none;fillColor=none;align=center;verticalAlign=middle;whiteSpace=wrap;rounded=0;fontSize=12;" vertex="1" parent="1">
          <mxGeometry x="494" y="390" width="106" height="20" as="geometry" />
        </mxCell>
        <mxCell id="p0xpRFuan8DHnEi8f1Jj-34" value="展示二维码" style="text;html=1;strokeColor=none;fillColor=none;align=center;verticalAlign=middle;whiteSpace=wrap;rounded=0;fontSize=12;" vertex="1" parent="1">
          <mxGeometry x="497" y="430" width="106" height="20" as="geometry" />
        </mxCell>
        <mxCell id="p0xpRFuan8DHnEi8f1Jj-35" value="" style="rounded=0;whiteSpace=wrap;html=1;fontSize=17;fillColor=#d5e8d4;strokeColor=#82b366;" vertex="1" parent="1">
          <mxGeometry x="125" y="460" width="20" height="40" as="geometry" />
        </mxCell>
        <mxCell id="p0xpRFuan8DHnEi8f1Jj-36" value="" style="endArrow=none;dashed=1;html=1;fontSize=17;entryX=0.5;entryY=1;entryDx=0;entryDy=0;" edge="1" parent="1" target="p0xpRFuan8DHnEi8f1Jj-35">
          <mxGeometry width="50" height="50" relative="1" as="geometry">
            <mxPoint x="135" y="850" as="sourcePoint" />
            <mxPoint x="135" y="120" as="targetPoint" />
          </mxGeometry>
        </mxCell>
        <mxCell id="p0xpRFuan8DHnEi8f1Jj-37" value="" style="rounded=0;whiteSpace=wrap;html=1;fontSize=17;fillColor=#d5e8d4;strokeColor=#82b366;" vertex="1" parent="1">
          <mxGeometry x="295" y="500" width="20" height="70" as="geometry" />
        </mxCell>
        <mxCell id="p0xpRFuan8DHnEi8f1Jj-38" value="" style="endArrow=none;dashed=1;html=1;fontSize=17;entryX=0.5;entryY=1;entryDx=0;entryDy=0;" edge="1" parent="1" target="p0xpRFuan8DHnEi8f1Jj-37">
          <mxGeometry width="50" height="50" relative="1" as="geometry">
            <mxPoint x="304" y="850" as="sourcePoint" />
            <mxPoint x="304.5" y="120" as="targetPoint" />
          </mxGeometry>
        </mxCell>
        <mxCell id="p0xpRFuan8DHnEi8f1Jj-39" value="" style="endArrow=classic;html=1;fontSize=12;exitX=1;exitY=1;exitDx=0;exitDy=0;entryX=0;entryY=0;entryDx=0;entryDy=0;" edge="1" parent="1" source="p0xpRFuan8DHnEi8f1Jj-35" target="p0xpRFuan8DHnEi8f1Jj-37">
          <mxGeometry width="50" height="50" relative="1" as="geometry">
            <mxPoint x="170" y="570" as="sourcePoint" />
            <mxPoint x="220" y="520" as="targetPoint" />
          </mxGeometry>
        </mxCell>
        <mxCell id="p0xpRFuan8DHnEi8f1Jj-40" value="&lt;div&gt;打开Line Pay扫码&lt;/div&gt;&lt;div&gt;支付密码输入&lt;br&gt;&lt;/div&gt;" style="text;html=1;strokeColor=none;fillColor=none;align=center;verticalAlign=middle;whiteSpace=wrap;rounded=0;fontSize=12;" vertex="1" parent="1">
          <mxGeometry x="170" y="470" width="106" height="20" as="geometry" />
        </mxCell>
        <mxCell id="p0xpRFuan8DHnEi8f1Jj-42" value="" style="rounded=0;whiteSpace=wrap;html=1;fontSize=17;fillColor=#d5e8d4;strokeColor=#82b366;" vertex="1" parent="1">
          <mxGeometry x="460" y="570" width="20" height="40" as="geometry" />
        </mxCell>
        <mxCell id="p0xpRFuan8DHnEi8f1Jj-46" value="" style="endArrow=classic;html=1;fontSize=12;entryX=0;entryY=0;entryDx=0;entryDy=0;exitX=1;exitY=1;exitDx=0;exitDy=0;" edge="1" parent="1" source="p0xpRFuan8DHnEi8f1Jj-37" target="p0xpRFuan8DHnEi8f1Jj-42">
          <mxGeometry width="50" height="50" relative="1" as="geometry">
            <mxPoint x="320" y="570" as="sourcePoint" />
            <mxPoint x="390" y="590" as="targetPoint" />
          </mxGeometry>
        </mxCell>
        <mxCell id="p0xpRFuan8DHnEi8f1Jj-47" value="跳转到ConfirmUrl" style="text;html=1;strokeColor=none;fillColor=none;align=center;verticalAlign=middle;whiteSpace=wrap;rounded=0;fontSize=12;" vertex="1" parent="1">
          <mxGeometry x="330" y="540" width="106" height="20" as="geometry" />
        </mxCell>
        <mxCell id="p0xpRFuan8DHnEi8f1Jj-48" value="" style="rounded=0;whiteSpace=wrap;html=1;fontSize=17;fillColor=#d5e8d4;strokeColor=#82b366;" vertex="1" parent="1">
          <mxGeometry x="620" y="610" width="20" height="40" as="geometry" />
        </mxCell>
        <mxCell id="p0xpRFuan8DHnEi8f1Jj-49" value="" style="endArrow=none;dashed=1;html=1;fontSize=17;entryX=0.5;entryY=1;entryDx=0;entryDy=0;" edge="1" parent="1" source="p0xpRFuan8DHnEi8f1Jj-60" target="p0xpRFuan8DHnEi8f1Jj-48">
          <mxGeometry width="50" height="50" relative="1" as="geometry">
            <mxPoint x="630" y="850" as="sourcePoint" />
            <mxPoint x="630" y="290" as="targetPoint" />
          </mxGeometry>
        </mxCell>
        <mxCell id="p0xpRFuan8DHnEi8f1Jj-50" value="" style="endArrow=classic;html=1;fontSize=12;exitX=1;exitY=1;exitDx=0;exitDy=0;entryX=0;entryY=0;entryDx=0;entryDy=0;" edge="1" parent="1" source="p0xpRFuan8DHnEi8f1Jj-42" target="p0xpRFuan8DHnEi8f1Jj-48">
          <mxGeometry width="50" height="50" relative="1" as="geometry">
            <mxPoint x="520" y="670" as="sourcePoint" />
            <mxPoint x="570" y="620" as="targetPoint" />
          </mxGeometry>
        </mxCell>
        <mxCell id="p0xpRFuan8DHnEi8f1Jj-51" value="&lt;div style=&quot;font-size: 12px&quot;&gt;&lt;font style=&quot;font-size: 12px&quot;&gt;调用收单网关接口&lt;/font&gt;&lt;/div&gt;&lt;font style=&quot;font-size: 12px&quot;&gt;确认付款&lt;br&gt;&lt;/font&gt;" style="text;html=1;strokeColor=none;fillColor=none;align=center;verticalAlign=middle;whiteSpace=wrap;rounded=0;fontSize=17;" vertex="1" parent="1">
          <mxGeometry x="503" y="580" width="100" height="20" as="geometry" />
        </mxCell>
        <mxCell id="p0xpRFuan8DHnEi8f1Jj-52" value="" style="rounded=0;whiteSpace=wrap;html=1;fontSize=17;fillColor=#d5e8d4;strokeColor=#82b366;" vertex="1" parent="1">
          <mxGeometry x="772" y="650" width="20" height="40" as="geometry" />
        </mxCell>
        <mxCell id="p0xpRFuan8DHnEi8f1Jj-53" value="" style="endArrow=none;dashed=1;html=1;fontSize=17;entryX=0.5;entryY=1;entryDx=0;entryDy=0;" edge="1" parent="1" target="p0xpRFuan8DHnEi8f1Jj-52">
          <mxGeometry width="50" height="50" relative="1" as="geometry">
            <mxPoint x="781" y="850" as="sourcePoint" />
            <mxPoint x="781.5" y="120" as="targetPoint" />
          </mxGeometry>
        </mxCell>
        <mxCell id="p0xpRFuan8DHnEi8f1Jj-54" value="" style="endArrow=classic;html=1;fontSize=12;exitX=1;exitY=1;exitDx=0;exitDy=0;entryX=0;entryY=0;entryDx=0;entryDy=0;" edge="1" parent="1" source="p0xpRFuan8DHnEi8f1Jj-48" target="p0xpRFuan8DHnEi8f1Jj-52">
          <mxGeometry width="50" height="50" relative="1" as="geometry">
            <mxPoint x="650" y="670" as="sourcePoint" />
            <mxPoint x="700" y="620" as="targetPoint" />
          </mxGeometry>
        </mxCell>
        <mxCell id="p0xpRFuan8DHnEi8f1Jj-55" value="&lt;div style=&quot;font-size: 12px&quot;&gt;&lt;font style=&quot;font-size: 12px&quot;&gt;调用Confirm API&lt;br&gt;&lt;/font&gt;&lt;/div&gt;&lt;font style=&quot;font-size: 12px&quot;&gt;确认付款&lt;br&gt;&lt;/font&gt;" style="text;html=1;strokeColor=none;fillColor=none;align=center;verticalAlign=middle;whiteSpace=wrap;rounded=0;fontSize=17;" vertex="1" parent="1">
          <mxGeometry x="656" y="620" width="100" height="20" as="geometry" />
        </mxCell>
        <mxCell id="p0xpRFuan8DHnEi8f1Jj-56" value="" style="rounded=0;whiteSpace=wrap;html=1;fontSize=17;fillColor=#d5e8d4;strokeColor=#82b366;" vertex="1" parent="1">
          <mxGeometry x="295" y="690" width="20" height="40" as="geometry" />
        </mxCell>
        <mxCell id="p0xpRFuan8DHnEi8f1Jj-57" value="" style="endArrow=classic;html=1;fontSize=12;exitX=0;exitY=1;exitDx=0;exitDy=0;entryX=1;entryY=0;entryDx=0;entryDy=0;" edge="1" parent="1" source="p0xpRFuan8DHnEi8f1Jj-52" target="p0xpRFuan8DHnEi8f1Jj-56">
          <mxGeometry width="50" height="50" relative="1" as="geometry">
            <mxPoint x="380" y="770" as="sourcePoint" />
            <mxPoint x="430" y="720" as="targetPoint" />
          </mxGeometry>
        </mxCell>
        <mxCell id="p0xpRFuan8DHnEi8f1Jj-58" value="返回支付结果" style="text;html=1;strokeColor=none;fillColor=none;align=center;verticalAlign=middle;whiteSpace=wrap;rounded=0;fontSize=12;" vertex="1" parent="1">
          <mxGeometry x="480" y="660" width="106" height="20" as="geometry" />
        </mxCell>
        <mxCell id="p0xpRFuan8DHnEi8f1Jj-59" value="" style="rounded=0;whiteSpace=wrap;html=1;fontSize=17;fillColor=#d5e8d4;strokeColor=#82b366;" vertex="1" parent="1">
          <mxGeometry x="772" y="730" width="20" height="40" as="geometry" />
        </mxCell>
        <mxCell id="p0xpRFuan8DHnEi8f1Jj-60" value="" style="rounded=0;whiteSpace=wrap;html=1;fontSize=17;fillColor=#d5e8d4;strokeColor=#82b366;" vertex="1" parent="1">
          <mxGeometry x="620" y="730" width="20" height="40" as="geometry" />
        </mxCell>
        <mxCell id="p0xpRFuan8DHnEi8f1Jj-61" value="" style="endArrow=none;dashed=1;html=1;fontSize=17;entryX=0.5;entryY=1;entryDx=0;entryDy=0;" edge="1" parent="1" target="p0xpRFuan8DHnEi8f1Jj-60">
          <mxGeometry width="50" height="50" relative="1" as="geometry">
            <mxPoint x="630" y="850" as="sourcePoint" />
            <mxPoint x="630" y="650" as="targetPoint" />
          </mxGeometry>
        </mxCell>
        <mxCell id="p0xpRFuan8DHnEi8f1Jj-62" value="" style="endArrow=classic;html=1;fontSize=12;exitX=0;exitY=0.5;exitDx=0;exitDy=0;entryX=1;entryY=0.5;entryDx=0;entryDy=0;" edge="1" parent="1" source="p0xpRFuan8DHnEi8f1Jj-59" target="p0xpRFuan8DHnEi8f1Jj-60">
          <mxGeometry width="50" height="50" relative="1" as="geometry">
            <mxPoint x="670" y="780" as="sourcePoint" />
            <mxPoint x="720" y="730" as="targetPoint" />
          </mxGeometry>
        </mxCell>
        <mxCell id="p0xpRFuan8DHnEi8f1Jj-63" value="&lt;div&gt;异步返回&lt;/div&gt;&lt;div&gt;支付结果&lt;/div&gt;" style="text;html=1;strokeColor=none;fillColor=none;align=center;verticalAlign=middle;whiteSpace=wrap;rounded=0;fontSize=12;" vertex="1" parent="1">
          <mxGeometry x="670" y="720" width="79" height="20" as="geometry" />
        </mxCell>
        <mxCell id="p0xpRFuan8DHnEi8f1Jj-65" value="" style="rounded=0;whiteSpace=wrap;html=1;fontSize=17;fillColor=#d5e8d4;strokeColor=#82b366;" vertex="1" parent="1">
          <mxGeometry x="460" y="730" width="20" height="40" as="geometry" />
        </mxCell>
        <mxCell id="p0xpRFuan8DHnEi8f1Jj-66" value="" style="endArrow=none;dashed=1;html=1;fontSize=17;entryX=0.5;entryY=1;entryDx=0;entryDy=0;" edge="1" parent="1" target="p0xpRFuan8DHnEi8f1Jj-65">
          <mxGeometry width="50" height="50" relative="1" as="geometry">
            <mxPoint x="470" y="850" as="sourcePoint" />
            <mxPoint x="470" y="460" as="targetPoint" />
          </mxGeometry>
        </mxCell>
        <mxCell id="p0xpRFuan8DHnEi8f1Jj-67" value="" style="endArrow=classic;html=1;fontSize=12;entryX=1;entryY=0.5;entryDx=0;entryDy=0;exitX=0;exitY=0.5;exitDx=0;exitDy=0;" edge="1" parent="1" source="p0xpRFuan8DHnEi8f1Jj-60" target="p0xpRFuan8DHnEi8f1Jj-65">
          <mxGeometry width="50" height="50" relative="1" as="geometry">
            <mxPoint x="550" y="810" as="sourcePoint" />
            <mxPoint x="600" y="760" as="targetPoint" />
          </mxGeometry>
        </mxCell>
        <mxCell id="p0xpRFuan8DHnEi8f1Jj-68" value="返回支付结果" style="text;html=1;strokeColor=none;fillColor=none;align=center;verticalAlign=middle;whiteSpace=wrap;rounded=0;fontSize=12;" vertex="1" parent="1">
          <mxGeometry x="513.5" y="720" width="79" height="20" as="geometry" />
        </mxCell>
      </root>
    </mxGraphModel>
  </diagram>
</mxfile>
